<svg width="41" height="40" viewBox="0 0 41 40" fill="none" xmlns="http://www.w3.org/2000/svg">
<path d="M24 0.00845776C23.9844 0.0147078 23.9656 0.0240828 23.95 0.0334578L1.55001 4.28346C1.16876 4.35534 0.893757 4.69284 0.900007 5.08346V34.9335C0.893757 35.3241 1.16876 35.6616 1.55001 35.7335L23.95 39.9835C24.1813 40.0272 24.4219 39.9679 24.6063 39.8179C24.7875 39.6679 24.8969 39.446 24.9 39.2085V35.2085H38.5C39.375 35.2085 40.1 34.4835 40.1 33.6085V6.40846C40.1 5.53346 39.375 4.80846 38.5 4.80846H24.9V0.808458C24.9031 0.577209 24.8031 0.358458 24.6313 0.205333C24.4594 0.0522078 24.2281 -0.0196673 24 0.00845776ZM23.3 1.75846V5.23346C23.1938 5.45534 23.1938 5.71159 23.3 5.93346V34.2585C23.2781 34.3647 23.2781 34.4772 23.3 34.5835V38.2585L2.50001 34.2835V5.73346L23.3 1.75846ZM24.9 6.40846H38.5V33.6085H24.9V29.6085H28.1V28.0085H24.9V23.2085H28.1V21.6085H24.9V17.6085H28.1V16.0085H24.9V12.0085H28.1V10.4085H24.9V6.40846ZM29.7 10.4085V12.0085H36.1V10.4085H29.7ZM6.25001 12.5585L10.625 20.0335L5.85001 27.5085H9.85L12.45 22.6835C12.6313 22.2178 12.75 21.8616 12.8 21.6335H12.825C12.9281 22.121 13.0281 22.4522 13.125 22.6335L15.725 27.5085H19.7L15.1 19.9585L19.575 12.5585H15.825L13.45 16.9835C13.2219 17.5616 13.0594 18.0178 12.975 18.3085H12.95C12.8188 17.821 12.6688 17.3866 12.5 17.0335L10.35 12.5585H6.25001ZM29.7 16.0085V17.6085H36.1V16.0085H29.7ZM29.7 21.6085V23.2085H36.1V21.6085H29.7ZM29.7 28.0085V29.6085H36.1V28.0085H29.7Z" fill="black"/>
</svg>
