<svg width="75" height="75" viewBox="0 0 75 75" fill="#EAAC8B" xmlns="http://www.w3.org/2000/svg">
<path d="M20.8333 62.5H27.0833V54.1667H35.4167V47.9167H27.0833V39.5833H20.8333V47.9167H12.5V54.1667H20.8333V62.5ZM41.6667 59.375H62.5V53.125H41.6667V59.375ZM41.6667 48.9583H62.5V42.7083H41.6667V48.9583ZM46.25 33.125L52.0833 27.2917L57.9167 33.125L62.2917 28.75L56.4583 22.7083L62.2917 16.875L57.9167 12.5L52.0833 18.3333L46.25 12.5L41.875 16.875L47.7083 22.7083L41.875 28.75L46.25 33.125ZM13.5417 25.8333H34.375V19.5833H13.5417V25.8333ZM8.33333 75C6.04167 75 4.07986 74.184 2.44792 72.5521C0.815972 70.9201 0 68.9583 0 66.6667V8.33333C0 6.04167 0.815972 4.07986 2.44792 2.44792C4.07986 0.815972 6.04167 0 8.33333 0H66.6667C68.9583 0 70.9201 0.815972 72.5521 2.44792C74.184 4.07986 75 6.04167 75 8.33333V66.6667C75 68.9583 74.184 70.9201 72.5521 72.5521C70.9201 74.184 68.9583 75 66.6667 75H8.33333ZM8.33333 66.6667H66.6667V8.33333H8.33333V66.6667Z"/>
</svg>
