<svg width="31" height="30" viewBox="0 0 31 30" xmlns="http://www.w3.org/2000/svg">
<path d="M3.83333 26.6667H6.20833L22.5 10.375L20.125 8L3.83333 24.2917V26.6667ZM0.5 30V22.9167L22.5 0.958333C22.8333 0.652778 23.2014 0.416667 23.6042 0.25C24.0069 0.0833333 24.4306 0 24.875 0C25.3194 0 25.75 0.0833333 26.1667 0.25C26.5833 0.416667 26.9444 0.666667 27.25 1L29.5417 3.33333C29.875 3.63889 30.1181 4 30.2708 4.41667C30.4236 4.83333 30.5 5.25 30.5 5.66667C30.5 6.11111 30.4236 6.53472 30.2708 6.9375C30.1181 7.34028 29.875 7.70833 29.5417 8.04167L7.58333 30H0.5ZM21.2917 9.20833L20.125 8L22.5 10.375L21.2917 9.20833Z"/>
</svg>
