<svg width="35" height="36" viewBox="0 0 35 36" fill="none" xmlns="http://www.w3.org/2000/svg">
<path d="M15.75 26.75H19.25V19.75H26.25V16.25H19.25V9.25H15.75V16.25H8.75V19.75H15.75V26.75ZM17.5 35.5C15.0792 35.5 12.8042 35.0406 10.675 34.1219C8.54583 33.2031 6.69375 31.9563 5.11875 30.3813C3.54375 28.8063 2.29688 26.9542 1.37813 24.825C0.459375 22.6958 0 20.4208 0 18C0 15.5792 0.459375 13.3042 1.37813 11.175C2.29688 9.04583 3.54375 7.19375 5.11875 5.61875C6.69375 4.04375 8.54583 2.79688 10.675 1.87813C12.8042 0.959375 15.0792 0.5 17.5 0.5C19.9208 0.5 22.1958 0.959375 24.325 1.87813C26.4542 2.79688 28.3063 4.04375 29.8813 5.61875C31.4563 7.19375 32.7031 9.04583 33.6219 11.175C34.5406 13.3042 35 15.5792 35 18C35 20.4208 34.5406 22.6958 33.6219 24.825C32.7031 26.9542 31.4563 28.8063 29.8813 30.3813C28.3063 31.9563 26.4542 33.2031 24.325 34.1219C22.1958 35.0406 19.9208 35.5 17.5 35.5ZM17.5 32C21.4083 32 24.7188 30.6438 27.4313 27.9313C30.1438 25.2188 31.5 21.9083 31.5 18C31.5 14.0917 30.1438 10.7813 27.4313 8.06875C24.7188 5.35625 21.4083 4 17.5 4C13.5917 4 10.2813 5.35625 7.56875 8.06875C4.85625 10.7813 3.5 14.0917 3.5 18C3.5 21.9083 4.85625 25.2188 7.56875 27.9313C10.2813 30.6438 13.5917 32 17.5 32Z" fill="black"/>
</svg>
