<svg width="29" height="34" viewBox="0 0 29 34" fill="none" xmlns="http://www.w3.org/2000/svg">
<path d="M12.6875 33.7203C9.03229 33.2672 6.00391 31.6737 3.60234 28.9398C1.20078 26.206 0 22.9964 0 19.3109C0 17.3172 0.392708 15.4065 1.17813 13.5789C1.96354 11.7513 3.08125 10.1578 4.53125 8.79844L7.11406 11.3813C5.96615 12.4083 5.09766 13.6016 4.50859 14.9609C3.91953 16.3203 3.625 17.7703 3.625 19.3109C3.625 21.9693 4.47083 24.318 6.1625 26.357C7.85417 28.3961 10.0292 29.6422 12.6875 30.0953V33.7203ZM16.3125 33.7203V30.0953C18.9406 29.612 21.1081 28.3583 22.8148 26.3344C24.5216 24.3104 25.375 21.9693 25.375 19.3109C25.375 16.2901 24.3177 13.7224 22.2031 11.6078C20.0885 9.49323 17.5208 8.43594 14.5 8.43594H14.3641L16.3578 10.4297L13.8203 12.9672L7.47656 6.62344L13.8203 0.279694L16.3578 2.81719L14.3641 4.81094H14.5C18.5479 4.81094 21.9766 6.21563 24.7859 9.025C27.5953 11.8344 29 15.263 29 19.3109C29 22.9661 27.7992 26.1607 25.3977 28.8945C22.9961 31.6284 19.9677 33.237 16.3125 33.7203Z" fill="black"/>
</svg>
